<?xml version="1.0" standalone="no"?>
<!DOCTYPE svg PUBLIC "-//W3C//DTD SVG 20010904//EN"
 "http://www.w3.org/TR/2001/REC-SVG-20010904/DTD/svg10.dtd">
<svg version="1.0" xmlns="http://www.w3.org/2000/svg"
 width="320.000000pt" height="320.000000pt" viewBox="0 0 320.000000 320.000000"
 preserveAspectRatio="xMidYMid meet">

<g transform="translate(0.000000,320.000000) scale(0.100000,-0.100000)"
fill="#000000" stroke="none">
<path d="M83 3110 c-84 -51 -84 -182 0 -227 26 -15 63 -19 203 -21 l171 -4
246 -829 247 -829 -19 -38 c-57 -112 -67 -237 -25 -320 47 -94 137 -142 279
-150 49 -2 207 5 350 17 478 39 698 52 1000 58 314 6 342 10 365 52 5 11 10
37 10 59 0 50 -34 88 -86 98 -96 18 -734 -11 -1284 -57 -396 -34 -450 -28
-450 49 0 21 6 45 13 54 10 13 184 37 892 122 955 115 912 107 948 177 18 36
237 1159 237 1219 0 41 -29 93 -62 112 -18 10 -249 14 -1177 18 l-1154 5 -57
193 c-31 105 -66 202 -76 213 -42 46 -60 49 -306 49 -213 0 -236 -2 -265 -20z
m1437 -920 l0 -210 -263 0 -263 0 -58 198 c-32 108 -61 203 -63 210 -4 9 64
12 321 12 l326 0 0 -210z m670 0 l0 -210 -270 0 -270 0 0 210 0 210 270 0 270
0 0 -210z m697 188 c-3 -13 -17 -84 -32 -158 -14 -74 -31 -159 -36 -187 l-10
-53 -245 0 -244 0 0 210 0 210 286 0 286 0 -5 -22z m-1367 -776 l0 -249 -142
-16 c-200 -24 -185 -27 -204 41 -9 31 -45 150 -79 265 l-62 207 243 0 244 0 0
-248z m670 40 l0 -208 -237 -28 c-131 -16 -253 -31 -270 -33 l-33 -6 0 242 0
241 270 0 270 0 0 -208z m590 196 c0 -15 -62 -332 -65 -336 -2 -3 -366 -50
-392 -52 -2 0 -3 90 -3 200 l0 200 230 0 c168 0 230 -3 230 -12z"/>
<path d="M980 559 c-205 -93 -213 -377 -13 -475 207 -102 434 87 370 307 -44
150 -217 232 -357 168z"/>
<path d="M2506 570 c-66 -20 -138 -91 -165 -163 -6 -16 -11 -56 -11 -90 1
-150 111 -261 260 -260 76 0 122 17 178 67 176 159 62 458 -172 455 -34 0 -74
-5 -90 -9z"/>
</g>
</svg>
